<?xml version="1.0" standalone="no"?>
<!DOCTYPE svg PUBLIC "-//W3C//DTD SVG 1.1//EN" "http://www.w3.org/Graphics/SVG/1.1/DTD/svg11.dtd" >
<svg xmlns="http://www.w3.org/2000/svg">
<metadata></metadata>
<defs>
<font id="kiddicarekiddicare" horiz-adv-x="1081" >
<font-face units-per-em="2048" ascent="1536" descent="-512" />
<missing-glyph horiz-adv-x="563" />
<glyph horiz-adv-x="0" />
<glyph unicode="&#xd;" horiz-adv-x="1024" />
<glyph horiz-adv-x="0" />
<glyph horiz-adv-x="0" />
<glyph unicode=" "  horiz-adv-x="563" />
<glyph unicode="&#x09;" horiz-adv-x="563" />
<glyph unicode="&#xa0;" horiz-adv-x="563" />
<glyph unicode="!" horiz-adv-x="264" d="M31 279v1062q0 29 19 48.5t48 19.5q27 0 45.5 -19.5t18.5 -48.5v-1062q0 -27 -18.5 -46.5t-45.5 -19.5q-29 0 -48 18.5t-19 47.5zM33 68q0 29 19 47t48 18q27 0 46.5 -18.5t19.5 -46.5q0 -29 -19.5 -47.5t-46.5 -18.5q-29 0 -48 18.5t-19 47.5z" />
<glyph unicode="#" horiz-adv-x="1138" d="M4 414q0 29 20.5 49t49.5 20h211v135h-211q-29 0 -49.5 19.5t-20.5 48.5t20.5 49.5t49.5 20.5h211v202q0 29 20.5 48.5t48.5 19.5q29 0 48.5 -19.5t19.5 -48.5v-202h192v202q0 29 20.5 48.5t49.5 19.5t48.5 -19.5t19.5 -48.5v-202h213q29 0 48 -20.5t19 -49.5 t-19.5 -48.5t-47.5 -19.5h-213v-135h213q29 0 48 -20.5t19 -48.5q0 -29 -19.5 -48.5t-47.5 -19.5h-213v-278q0 -29 -19.5 -49.5t-48.5 -20.5t-49.5 20.5t-20.5 49.5v278h-192v-278q0 -29 -19.5 -49.5t-48.5 -20.5t-49 20.5t-20 49.5v278h-211q-29 0 -49.5 19.5t-20.5 48.5z M422 483h192v135h-192v-135z" />
<glyph unicode="%" horiz-adv-x="923" d="M37 836q0 39 14.5 73.5t40 60t60 41t73.5 15.5q76 0 135 -55q55 -59 56 -135q0 -39 -15.5 -74t-41 -60.5t-60.5 -41t-74 -15.5q-80 0 -133 57q-55 55 -55 134zM39 47q-6 29 8 49l678 899q16 23 39 27q27 6 47 -8q23 -14 28 -38t-10 -46l-677 -899q-12 -23 -41 -29 q-20 -6 -45 8q-20 12 -27 37zM133 836q0 -39 26.5 -67t65.5 -28t66.5 28t27.5 67t-27.5 66.5t-66.5 27.5t-65.5 -28t-26.5 -66zM469 188q0 80 55 134q53 57 133 57q39 0 74 -15.5t60.5 -41t41 -60.5t15.5 -74q0 -80 -57 -133q-53 -57 -134 -57q-39 0 -73.5 15.5t-60 41 t-40 60.5t-14.5 73zM565 188q0 -39 26.5 -66.5t65.5 -27.5t67 28t28 66q0 39 -28 67t-67 28t-65.5 -28t-26.5 -67z" />
<glyph unicode="&#x26;" horiz-adv-x="1169" d="M0 385q0 96 42 176t114 133l112 80l-100 119q-4 4 -6 8q-29 39 -46.5 88t-17.5 103q0 63 24.5 120.5t67.5 99.5t99.5 66.5t122.5 24.5q63 0 120.5 -24.5t100.5 -66.5t67.5 -99.5t24.5 -120.5q0 -72 -29.5 -134.5t-81.5 -105.5q-2 -2 -3 -2t-3 -2l-139 -100l317 -381 l170 127q23 16 52 11t45 -28t11 -50.5t-28 -43.5l-159 -121l172 -207q18 -23 17 -50.5t-24 -45.5t-50 -16t-46 24l-182 215l-133 -96q-51 -41 -112.5 -64.5t-133.5 -23.5q-80 0 -150.5 30.5t-123 83t-82 123t-29.5 150.5zM139 385q0 -51 19.5 -96t53.5 -79t78 -53.5 t95 -19.5q68 0 127 37l164 115l-318 379l-114 -82q-47 -35 -76 -87.5t-29 -113.5zM236 1092q0 -63 38 -113h-2l107 -127l149 106q59 53 60 134q0 37 -13.5 68.5t-38 55t-56 38t-68.5 14.5t-69 -14.5t-56.5 -38t-37.5 -55.5t-13 -68z" />
<glyph unicode="'" horiz-adv-x="219" d="M27 1343q0 29 18 47.5t47 18.5q27 0 45.5 -16.5t20.5 -42.5v-2v-5v-73v-2q0 -29 -19.5 -48.5t-48.5 -19.5q-23 0 -41 12q0 2 -2 2q-10 10 -10 21q0 27 26 27q10 0 17 -7q4 -2 10 -2q14 0 14 17v8h-12q-29 0 -47 18.5t-18 46.5z" />
<glyph unicode="(" horiz-adv-x="493" d="M12 707q0 223 95.5 422.5t269.5 343.5q16 14 41 14q33 0 51 -23v-2q16 -20 15.5 -47t-23.5 -45q-152 -123 -234 -296t-82 -367q0 -193 82 -366t232 -296q20 -14 24 -45q4 -29 -14 -49q-16 -23 -49 -23q-27 0 -43 15q-174 141 -269.5 340.5t-95.5 423.5z" />
<glyph unicode=")" horiz-adv-x="567" d="M-4 0.5q2 26.5 24 44.5q152 123 234 296t82 366q0 195 -82 367.5t-234 295.5h-2q-20 18 -22 45t14 47v2q23 23 51 23q27 0 43 -14q174 -143 268.5 -343t94.5 -423t-94 -423t-269 -341q-16 -14 -43 -15q-33 0 -51 23q-16 23 -14 49.5z" />
<glyph unicode="*" horiz-adv-x="485" d="M3 1146.5q5 20.5 24 31.5l69 41l-69 38q-18 10 -23.5 31t4.5 37q10 18 29.5 24.5t38.5 -3.5l71 -41v79q0 20 14.5 35t35.5 15q20 0 34.5 -14.5t14.5 -35.5v-79l71 41q16 10 36 3.5t30 -22.5q10 -18 5 -37.5t-21 -29.5l-72 -41l72 -41q16 -10 21 -31t-5 -39 q-10 -16 -29.5 -21.5t-38.5 5.5l-69 38v-81q0 -20 -14.5 -34t-34.5 -14t-35 13.5t-15 34.5v81l-71 -38q-16 -10 -37 -5t-31 23q-10 16 -5 36.5z" />
<glyph unicode="+" horiz-adv-x="1064" d="M4 549q0 29 19.5 48t48.5 19h338q4 0 8 4.5t4 8.5v327q0 27 18.5 45.5t44.5 18.5q29 0 48.5 -18.5t19.5 -45.5v-327q0 -12 12 -13h338q27 0 45.5 -19t18.5 -48q0 -27 -18.5 -46.5t-45.5 -19.5h-338q-12 0 -12 -12v-405q0 -29 -19.5 -47.5t-48.5 -18.5q-27 0 -45 19.5 t-18 46.5v403q0 14 -12 14h-338q-29 0 -48.5 19.5t-19.5 46.5z" />
<glyph unicode="," horiz-adv-x="210" d="M2 68q0 29 19.5 47t48.5 18q25 0 43 -17.5t20 -41.5h2v-2v-4v-74v-2q-2 -29 -21.5 -48.5t-47.5 -19.5q-25 0 -39 13q-2 0 -2 2h-2q-8 8 -9 20q0 27 27 27q10 0 16 -6q2 -2 9 -3q16 0 16 17v8h-12q-29 0 -48.5 18.5t-19.5 47.5z" />
<glyph unicode="-" d="M0 551q0 27 18.5 45t47.5 18h831q27 0 46.5 -18t19.5 -45q0 -29 -18.5 -48.5t-47.5 -19.5h-831q-29 0 -47.5 19.5t-18.5 48.5z" />
<glyph unicode="." horiz-adv-x="219" d="M6 70q0 27 19.5 46t48.5 19q27 0 46 -19.5t19 -45.5q0 -29 -19.5 -48.5t-45.5 -19.5q-29 0 -48.5 19.5t-19.5 48.5z" />
<glyph unicode="/" horiz-adv-x="651" d="M10 42q-10 26 0 54l406 889q16 41 61 41q15 0 27 -6q27 -12 37 -38t0 -52l-2 -2l-404 -889q-16 -39 -61 -39q-10 0 -27 4q-27 12 -37 38z" />
<glyph unicode="0" horiz-adv-x="1142" d="M0 504v401q0 104 41 196.5t111.5 161t165 108.5t200.5 40q104 0 199.5 -38.5t169.5 -110.5t112.5 -166.5t40.5 -198.5v-387q-2 -104 -40.5 -197.5t-112.5 -165.5t-169 -110.5t-200 -38.5q-106 0 -200.5 40t-165 108.5t-111.5 160.5t-41 197zM135 512q0 -80 31 -148.5 t83 -121t121.5 -82t147.5 -29.5q80 0 150.5 29.5t123 82t83 121t30.5 148.5v385q0 78 -30.5 147.5t-83 122t-123 82t-150.5 29.5q-78 0 -147.5 -29.5t-121.5 -82t-83 -122t-31 -147.5v-385z" />
<glyph unicode="1" horiz-adv-x="960" d="M0 63q0 29 18.5 48.5t47.5 19.5h221q29 0 48 19.5t19 46.5v985q-51 -51 -90 -92l-100 -101q-20 -20 -47 -20q-31 0 -47 20q-20 20 -20.5 48t20.5 48q6 6 21 21.5t39 39t50.5 50.5t52.5 55q63 66 142 142q18 18 45 18q29 0 49 -19.5t20 -45.5v-1149q0 -27 18.5 -46.5 t47.5 -19.5h225q29 0 48.5 -19.5t19.5 -48.5t-19.5 -47t-48.5 -18h-714q-29 0 -47.5 18.5t-18.5 46.5z" />
<glyph unicode="2" horiz-adv-x="1069" d="M2 59v4q0 31 21 50l665 600q53 45 83 108.5t30 136.5q0 66 -25.5 124.5t-68.5 101.5t-101.5 68.5t-124.5 25.5q-68 0 -126 -25.5t-101 -68.5t-68.5 -101.5t-25.5 -124.5q0 -29 -19.5 -48t-48.5 -19q-27 0 -46 19.5t-19 47.5q0 94 35.5 176.5t97 143.5t144.5 97t177 36 t176 -36t143.5 -97t97.5 -143t36 -177q0 -104 -41 -192t-113 -150q-2 0 -2 -2l-538 -483h661q27 0 45.5 -19.5t18.5 -48.5t-18.5 -47t-45.5 -18h-831h-2q-27 0 -45.5 17.5t-20.5 43.5z" />
<glyph unicode="3" horiz-adv-x="1073" d="M6 408q0 29 18.5 47t47.5 18t49 -16.5t22 -44.5q6 -51 34 -101.5t74 -90.5t106.5 -64.5t131.5 -24.5q70 0 133.5 21.5t112.5 62.5q102 80 103 195q0 113 -101 194q-104 82 -248 82q-25 0 -47 20.5t-22 49.5t20.5 49t48.5 20q20 0 50 5.5t61 14.5t60.5 22.5t52.5 29.5 q84 68 84 156q0 41 -21.5 81t-62.5 74q-45 33 -105.5 51.5t-120.5 18.5q-59 0 -119.5 -18.5t-101.5 -51.5t-61.5 -82t-24.5 -79q-2 -29 -20.5 -46.5t-44.5 -17.5q-29 0 -48.5 18.5t-19.5 47.5q2 76 38 145.5t97 116.5q59 47 140 73.5t165 26.5t166 -26.5t142 -73.5 q66 -51 100.5 -118t34.5 -140q0 -156 -135 -260q-14 -10 -26.5 -19.5t-25.5 -15.5q23 -10 42.5 -23.5t39.5 -29.5q72 -59 110 -135t38 -160t-38 -161t-110 -136q-63 -51 -155 -83t-181 -32q-90 0 -181 30.5t-156 84.5q-72 59 -109 135t-37 160z" />
<glyph unicode="4" horiz-adv-x="1155" d="M3 570.5q3 21.5 20 37.5l751 781q27 23 53 22q29 0 47.5 -20.5t18.5 -49.5v-723h96q29 0 48.5 -19t19.5 -46q0 -29 -19.5 -49.5t-48.5 -20.5h-96v-420q0 -29 -18.5 -47t-47.5 -18t-48 18.5t-19 46.5v420h-692q-41 0 -58 43q-10 23 -7 44.5zM223 618h537v564z" />
<glyph unicode="5" horiz-adv-x="1052" d="M4 379q-6 29 6.5 51.5t36.5 30.5q4 0 8 1t8 1q23 0 41.5 -14.5t22.5 -36.5q14 -61 48 -113.5t79 -89.5t100.5 -57.5t116.5 -20.5q74 0 139.5 29.5t114.5 81t76.5 121t27.5 147.5t-27.5 147.5t-76.5 121.5t-114.5 83t-139.5 31h-330q-29 0 -47 19.5t-20 48.5l2 256 q2 41 17.5 76.5t42 61t61 41t73.5 15.5h455q27 0 45 -19.5t18 -45.5q0 -29 -18 -48.5t-45 -19.5h-446q-27 0 -44.5 -17.5t-21.5 -41.5v-193h266q96 0 181 -41t155 -113q68 -74 104.5 -167t36.5 -195t-36.5 -195.5t-104.5 -167.5q-70 -72 -158 -110.5t-186 -38.5 q-82 0 -157.5 27.5t-137 79t-106.5 121t-66 153.5z" />
<glyph unicode="6" horiz-adv-x="1056" d="M2 516v340v78q0 98 38 185t102.5 151.5t151.5 102.5t185 38q125 0 228.5 -57.5t169.5 -153.5q12 -16 12 -37q0 -29 -19.5 -47t-48.5 -18q-33 0 -53 26v2q-47 70 -122 112t-167 42q-72 0 -134 -27.5t-109.5 -75t-75 -109.5t-27.5 -134v-62q16 16 17 23l2 2 q68 68 151.5 99.5t175.5 31.5q98 0 185 -34.5t155 -108.5t103.5 -169t35.5 -200q0 -104 -35.5 -198.5t-103.5 -165.5q-68 -76 -154.5 -115t-185.5 -39q-98 0 -185 41t-151.5 111.5t-102.5 165t-38 200.5zM131 516q0 -80 27.5 -149.5t75 -121.5t110.5 -83t135 -31t135.5 31 t111.5 83t75.5 121.5t27.5 149.5t-27.5 148.5t-75.5 120t-111.5 80t-135.5 28.5t-135 -28.5t-110.5 -80t-75 -120t-27.5 -148.5z" />
<glyph unicode="7" horiz-adv-x="876" d="M-98 1343q0 29 20.5 48.5t48.5 19.5h623q43 0 80 -15.5t64.5 -43t43 -64.5t15.5 -80q0 -51 -27 -100l-524 -1073q-8 -16 -25.5 -26.5t-38.5 -10.5q-14 0 -26 6q-23 10 -33 33q-10 31 2 55l534 1096q4 12 5 22q0 27 -17.5 45.5t-46.5 22.5h-629q-29 0 -49 18.5t-20 46.5z " />
<glyph unicode="8" horiz-adv-x="1060" d="M-4 414q0 86 37 161.5t108 135.5q4 2 11 8q20 16 20 49q0 29 -20 49q-55 49 -85 106.5t-30 125.5q0 156 135 262q125 100 305 100h2q176 0 305 -100q135 -106 136 -262q0 -70 -29 -126.5t-84 -105.5q-23 -18 -23 -49t23 -49q2 -4 4 -5t4 -3q72 -59 110 -135t38 -162 t-38 -162t-110 -135q-68 -57 -154 -88t-182 -31t-183 30.5t-155 88.5q-145 121 -145 297zM129 414q0 -59 27.5 -110.5t75 -89.5t111.5 -60.5t136 -22.5t135.5 22.5t110.5 60.5t74.5 89t27.5 111q0 57 -27.5 108t-74.5 89t-110.5 59.5t-135.5 21.5t-136 -21.5t-111.5 -59.5 t-75 -89t-27.5 -108zM170 1049q0 -43 22.5 -77t63.5 -65v-2q8 -8 29.5 -17t52.5 -18.5t66.5 -15.5t74.5 -6q76 0 139.5 20.5t83.5 36.5v2q41 31 62.5 65t21.5 77t-21.5 82.5t-62.5 74.5q-47 35 -104 53.5t-119 18.5h-2q-63 0 -120.5 -18.5t-100.5 -53.5q-86 -69 -86 -157z " />
<glyph unicode="9" horiz-adv-x="1064" d="M2 893q0 104 37 198.5t102 168.5q70 74 157 112.5t183 38.5q98 0 186.5 -41t153 -110.5t102.5 -165t38 -201.5v-340v-76q0 -98 -38 -186t-102.5 -152.5t-152.5 -102.5t-187 -38q-125 0 -228 57.5t-169 153.5q-10 16 -10 39q0 27 18.5 45t46.5 18q33 0 54 -26v-2h2 q47 -70 121.5 -111t164.5 -41q72 0 134.5 26.5t109.5 74t74.5 111t27.5 134.5v62q-4 -4 -6 -7.5t-4 -7.5l-4 -8l-2 -2l-2 -2q-68 -68 -152 -99.5t-176 -31.5q-96 0 -183 35t-157 108q-66 74 -102.5 169t-36.5 200zM131 893q0 -80 27.5 -148.5t75 -119t111.5 -79t136 -28.5 t135.5 28.5t111.5 79t75.5 119t27.5 148.5t-27.5 149.5t-75.5 122t-111.5 83t-135.5 30.5t-136 -30.5t-111.5 -83t-75 -122t-27.5 -149.5z" />
<glyph unicode=":" horiz-adv-x="215" d="M0 61q0 29 19.5 47.5t46.5 18.5q29 0 47 -18.5t18 -47.5t-18.5 -47t-46.5 -18q-29 0 -47.5 18.5t-18.5 46.5zM0 547q0 27 19.5 45t46.5 18q29 0 47 -18.5t18 -44.5q0 -29 -18.5 -48.5t-46.5 -19.5q-29 0 -47.5 19.5t-18.5 48.5z" />
<glyph unicode=";" horiz-adv-x="231" d="M-4 68q0 29 19.5 47t47.5 18q25 0 43.5 -17.5t20.5 -41.5v-2v-4v-74v-2q0 -29 -19.5 -48.5t-46.5 -19.5t-41 13l-2 2q-10 10 -10 20q0 27 27 27q10 0 16 -6q2 -2 8 -3q16 0 17 17v8h-13q-29 0 -48 18.5t-19 47.5zM-4 551q0 27 19.5 45t47.5 18q27 0 45.5 -18t18.5 -45 q0 -29 -18.5 -48.5t-45.5 -19.5q-29 0 -48 19.5t-19 48.5z" />
<glyph unicode="=" horiz-adv-x="1040" d="M0 416q0 29 19.5 48t48.5 19h825q29 0 49.5 -19.5t20.5 -47.5q0 -29 -20.5 -49.5t-49.5 -20.5h-825q-29 0 -48.5 20.5t-19.5 49.5zM0 416q0 29 19.5 48t48.5 19h825q29 0 49.5 -19.5t20.5 -47.5q0 -29 -20.5 -49.5t-49.5 -20.5h-825q-29 0 -48.5 20.5t-19.5 49.5zM0 684 q0 29 19.5 48.5t48.5 19.5h825q29 0 49.5 -19.5t20.5 -48.5t-20.5 -49.5t-49.5 -20.5h-825q-29 0 -48.5 20.5t-19.5 49.5zM0 684q0 29 19.5 48.5t48.5 19.5h825q29 0 49.5 -19.5t20.5 -48.5t-20.5 -49.5t-49.5 -20.5h-825q-29 0 -48.5 20.5t-19.5 49.5z" />
<glyph unicode="?" horiz-adv-x="991" d="M-68 924v2q0 100 38 187t103.5 152.5t153 103.5t187.5 38t187 -38t152.5 -103.5t103.5 -152.5t38 -187q0 -92 -32 -173t-88 -144.5t-132 -105.5t-164 -54v-173q0 -27 -18.5 -46t-46.5 -19q-29 0 -47.5 18.5t-18.5 46.5v232v2q0 29 18.5 48.5t47.5 19.5q72 0 135 27.5 t110.5 74.5t75 110.5t27.5 135.5t-27.5 135t-75 110.5t-111 75t-134.5 27.5q-72 0 -135.5 -27.5t-110.5 -75t-74.5 -111t-27.5 -134.5v-2q0 -27 -19.5 -46.5t-48.5 -19.5t-47.5 19.5t-18.5 46.5zM346 66q0 29 19.5 48t46.5 19q29 0 49 -19.5t20 -47.5q0 -29 -20.5 -47.5 t-48.5 -18.5q-27 0 -46.5 18.5t-19.5 47.5z" />
<glyph unicode="@" horiz-adv-x="1611" d="M0 485q0 158 59.5 296.5t163 241.5t241.5 162.5t296 59.5t296 -59.5t241.5 -162.5t163 -241.5t59.5 -296.5v-4v-100q0 -53 -21.5 -100.5t-57.5 -82t-83 -55t-103 -20.5q-72 0 -130 33.5t-93 89.5q-49 -57 -119.5 -90t-152.5 -33q-76 0 -141.5 28.5t-114.5 78t-78 115 t-29 140.5q0 74 29 140.5t78 116t114.5 78t141.5 28.5t141.5 -28.5t114.5 -78t77.5 -116t28.5 -140.5v-10v-88q0 -55 40 -93t93 -38q55 0 93 38t38 93v94v4q0 129 -49 244t-134 200t-199.5 134t-243.5 49t-244 -49t-201 -134t-135 -200t-49 -244q0 -123 44 -230.5t120 -191 t178 -137t221 -65.5h2q8 -2 15.5 -2h13.5q2 0 7 -1t9 -1h19q119 0 223 41t186 112q23 18 48 19q29 0 47 -18.5t18 -47.5q0 -37 -29 -55q-98 -86 -225 -135t-268 -49q-4 0 -9.5 1t-9.5 1h-4h-18q-12 0 -19 2q-10 0 -18 1t-18 1l-2 2q-33 4 -65 10t-62 16l-5 2h-4 q-115 37 -211 107t-166.5 165t-109.5 210.5t-39 242.5zM528 485q0 -49 18.5 -91t50.5 -72.5t74 -49t89 -18.5q49 0 91 18.5t72.5 49t49 72.5t18.5 91q0 47 -18.5 89t-49 74t-72.5 50.5t-91 18.5q-47 0 -89 -18.5t-74 -50.5t-50.5 -74t-18.5 -89z" />
<glyph unicode="K" horiz-adv-x="7907" d="M4 66v1275q0 29 18.5 48.5t47.5 19.5t48 -19.5t19 -48.5v-692v-61v-137q195 154 350 276q66 51 129.5 102.5t113.5 91.5t82 64.5t34 26.5q14 14 41 14q33 0 51 -25q16 -20 14 -46.5t-22 -45.5q-2 0 -10 -8q-37 -29 -99.5 -78t-122.5 -96q-70 -55 -149 -119q27 -16 51 -47 h2q27 -31 58.5 -65.5t65.5 -71.5t67.5 -75t64.5 -73l148 -165q16 -16 16 -48q-4 -29 -23 -45q-16 -18 -43 -18q-29 0 -49 20h-2q0 2 -8 11q-137 154 -242.5 270.5t-165.5 183.5q-18 18 -47 19q-25 0 -39 -12q-70 -55 -136 -108.5t-103 -84.5q-27 -20 -27 -53v-2v-178 q0 -27 -19.5 -46.5t-47.5 -19.5q-29 0 -47.5 19.5t-18.5 46.5zM1124 66v895q0 29 18.5 47t47.5 18t47 -18.5t18 -46.5v-895q0 -29 -18 -47.5t-47 -18.5t-47.5 18.5t-18.5 47.5zM1124 1341q0 29 18.5 48.5t47.5 19.5t47 -19.5t18 -48.5t-18 -47t-47 -18t-47.5 18.5 t-18.5 46.5zM1356 512q0 106 40 200.5t109.5 164t162.5 109.5t200 40q86 0 164 -27q57 -16 112 -53q2 0 2 -2q16 -10 35 -10q29 0 48.5 18.5t19.5 46.5v344q0 27 18.5 46.5t46.5 19.5q29 0 46.5 -17.5t21.5 -45.5v-3v-831q0 -106 -41 -199.5t-110.5 -163t-163 -109.5 t-199.5 -40t-199.5 40t-163 109.5t-109.5 163t-40 199.5zM1489 512q0 -78 29.5 -147.5t81 -120.5t121 -81t147.5 -30t147.5 30t120.5 81t81 120.5t30 147.5t-30 147.5t-81 122t-120.5 82t-147.5 29.5t-147.5 -29.5t-121 -82t-81 -122t-29.5 -147.5zM2480 512q0 106 40 200.5 t109.5 164t163 109.5t199.5 40q88 0 166 -27q59 -18 113 -53v-2h2q16 -10 35 -10q27 0 46 18.5t19 46.5v344q0 27 19.5 46.5t46.5 19.5q29 0 47 -17.5t20 -45.5v-3v-831q0 -106 -40 -199.5t-109.5 -163t-163.5 -109.5t-201 -40q-106 0 -199.5 40t-163 109.5t-109.5 163 t-40 199.5zM2613 512q0 -78 30 -147.5t81 -120.5t120.5 -81t147.5 -30t147.5 30t122 81t82 120.5t29.5 147.5t-29.5 147.5t-82 122t-122 82t-147.5 29.5t-147.5 -29.5t-120.5 -82t-81 -122t-30 -147.5zM3625 66v895q0 29 18 47t47 18t47.5 -18.5t18.5 -46.5v-895 q0 -29 -18.5 -47.5t-47.5 -18.5t-47 18.5t-18 47.5zM3625 1341q0 29 18 48.5t47 19.5t47.5 -19.5t18.5 -48.5t-18.5 -47t-47.5 -18t-47 18.5t-18 46.5zM3856 512q0 106 40 200.5t110 164t163 109.5t199 40q100 0 191.5 -36t163.5 -105q23 -18 22 -49q0 -29 -19.5 -48.5 t-47.5 -19.5q-31 0 -50 23q-53 49 -119.5 75.5t-140.5 26.5q-78 0 -147.5 -29.5t-120.5 -82t-80.5 -122t-29.5 -147.5t29.5 -147.5t80.5 -120.5t121 -81t147 -30q72 0 138.5 26.5t121.5 76.5q6 8 17.5 15t30.5 7q29 0 48 -20.5t19 -47.5q0 -20 -9 -32.5t-13 -16.5 q-72 -68 -162 -104.5t-191 -36.5q-106 0 -199 40t-163 109.5t-110 163t-40 199.5zM4821 514q0 106 41 199.5t110.5 163t163 109.5t199.5 40q104 0 197.5 -40t163 -108.5t110.5 -160.5t43 -197v-454q0 -29 -19.5 -47.5t-45.5 -18.5q-25 0 -43.5 14.5t-22.5 34.5 q-16 47 -66 47q-18 0 -32 -10q-53 -35 -119 -57q-82 -29 -166 -29q-106 0 -199.5 41t-163 110.5t-110.5 163t-41 199.5zM4956 514q0 -78 30 -147.5t81 -120.5t120.5 -81t147.5 -30q80 0 148.5 30t121 81t82 120.5t29.5 147.5t-29.5 147.5t-82 121t-121 81t-148.5 29.5 q-78 0 -147.5 -29.5t-120.5 -81t-81 -121t-30 -147.5zM5947 66v450q0 106 40 198.5t110 162t163 109.5t199 40q78 0 141.5 -20.5t108.5 -45t72 -47t33 -28.5q20 -20 20 -49t-18.5 -47.5t-46.5 -18.5q-16 0 -27.5 6t-19.5 12l-5 5q-12 14 -34.5 31.5t-54 32.5t-73.5 25.5 t-96 10.5q-78 0 -147.5 -29.5t-120.5 -81t-80.5 -121t-29.5 -147.5v-448q0 -27 -19.5 -46.5t-48.5 -19.5t-47.5 18.5t-18.5 47.5zM6818 514q0 106 41 199.5t110.5 163t162.5 109.5t200 40q100 0 185 -36t148.5 -98.5t102.5 -147.5t49 -183q2 -2 2 -8q0 -29 -19.5 -47.5 t-47.5 -18.5h-35h-31h-618q-29 0 -47.5 18.5t-18.5 47.5t18.5 47t47.5 18h604q-35 119 -123 197t-217 78q-78 0 -147.5 -29.5t-121 -81t-81 -121t-29.5 -147.5q0 -80 29.5 -148.5t81 -120.5t121 -82t147.5 -30q111 0 199 55.5t137 145.5q16 39 59 39q29 0 48.5 -19.5 t19.5 -48.5q0 -10 -4.5 -19.5t-8.5 -19.5q-66 -119 -184.5 -192.5t-265.5 -73.5q-106 0 -199.5 40t-163 109.5t-110.5 164t-41 200.5z" />
<glyph unicode="a" horiz-adv-x="1118" d="M0 514q0 106 41 199.5t110.5 163t163 109.5t199.5 40q104 0 197.5 -40t163 -108.5t110.5 -160.5t41 -197v-2v-452q0 -29 -18.5 -47.5t-44.5 -18.5q-25 0 -43.5 13.5t-22.5 35.5q-16 45 -66 45q-20 0 -34 -8q-55 -39 -117 -59q-78 -27 -166 -27q-106 0 -199.5 40 t-163 109.5t-110.5 164t-41 200.5zM135 514q0 -78 30 -147.5t81 -121.5t120.5 -82t147.5 -30q80 0 148.5 30t121 82t82 121.5t29.5 147.5t-29.5 147.5t-82 121t-121 81t-148.5 29.5q-78 0 -147.5 -29.5t-120.5 -81t-81 -121t-30 -147.5z" />
<glyph unicode="b" horiz-adv-x="1118" d="M2 512v831q2 29 20.5 46.5t47.5 17.5q27 0 46 -18.5t19 -47.5v-344q0 -27 19.5 -45t48.5 -18q16 0 33 10h2q49 33 112 55q78 27 166 27q106 0 199.5 -41t163 -110.5t109.5 -163t40 -199.5t-40 -199.5t-109.5 -163t-162.5 -109.5t-200 -40q-106 0 -200.5 40t-164 109.5 t-109.5 163t-40 199.5zM135 512q0 -78 30 -147.5t82 -120.5t121.5 -81t147.5 -30t147.5 30t121 81t81 120.5t29.5 147.5t-29.5 147.5t-81 120.5t-121 81t-147.5 30t-147.5 -30t-121.5 -81t-82 -120.5t-30 -147.5z" />
<glyph unicode="c" horiz-adv-x="991" d="M2 512q0 106 40 199.5t109.5 163t163 110.5t199.5 41q98 0 190.5 -37t163.5 -106q23 -16 23 -49q0 -29 -19.5 -48.5t-48.5 -19.5q-31 0 -49 22q-53 49 -119.5 77t-140.5 28q-78 0 -147.5 -29.5t-121.5 -82t-82 -122t-30 -147.5t30 -147.5t82 -120.5t121.5 -81t147.5 -30 q72 0 138.5 25.5t119.5 77.5q8 6 19.5 13t29.5 7q27 0 47.5 -19.5t20.5 -48.5q0 -18 -9.5 -31.5t-13.5 -17.5q-72 -68 -162 -103.5t-190 -35.5q-106 0 -199.5 40t-163 109.5t-109.5 163t-40 199.5z" />
<glyph unicode="d" horiz-adv-x="1126" d="M0 512q0 106 40 199.5t109.5 163t163 110.5t199.5 41q88 0 166 -27q55 -20 113 -55h2q14 -10 32 -10q29 0 48.5 18.5t19.5 44.5v344q0 29 19.5 47.5t45.5 18.5q29 0 47.5 -17.5t20.5 -46.5v-831q0 -106 -40 -199.5t-109.5 -163t-164 -109.5t-200.5 -40t-199.5 40 t-163 109.5t-109.5 163t-40 199.5zM133 512q0 -78 30 -147.5t82 -120.5t121.5 -81t147.5 -30t146.5 30t119.5 81t81 120.5t30 147.5t-30 147.5t-81 122t-120.5 82t-147.5 29.5t-147.5 -29.5t-120.5 -82t-81 -122t-30 -147.5z" />
<glyph unicode="e" horiz-adv-x="1093" d="M2 512q0 106 41 199.5t110.5 163t163 110.5t199.5 41q100 0 185 -36t148.5 -99.5t102.5 -147.5t49 -182q0 -4 1.5 -5t1.5 -5q0 -27 -19.5 -46.5t-48.5 -19.5h-35h-31h-618q-29 0 -47.5 18.5t-18.5 47.5t18.5 48t47.5 19h604q-35 119 -123 197t-217 78q-78 0 -147.5 -29.5 t-120.5 -82t-81 -122t-30 -147.5t30 -147.5t81 -120.5t120.5 -81t147.5 -30q111 0 199 55.5t135 145.5q20 39 61 39q29 0 48.5 -19.5t19.5 -48.5q0 -10 -4 -19.5t-8 -19.5q-66 -121 -184.5 -194.5t-266.5 -73.5q-106 0 -199.5 41t-163 110.5t-110.5 163t-41 199.5z" />
<glyph unicode="f" horiz-adv-x="724" d="M-29 690q0 29 18.5 47.5t47.5 18.5h92v198q0 94 36 176t97.5 143.5t143 97.5t176.5 36q131 0 237 -66q31 -20 31 -57q0 -29 -19.5 -47t-48.5 -18q-23 0 -34 10q-74 45 -166 45q-66 0 -123.5 -24.5t-100.5 -65.5t-68.5 -98.5t-27.5 -120.5v-209h299q29 0 47.5 -18.5 t18.5 -47.5t-18.5 -47t-47.5 -18h-299v-559q0 -29 -19.5 -47.5t-47.5 -18.5q-29 0 -47.5 18.5t-18.5 47.5v559h-92q-29 0 -47.5 18.5t-18.5 46.5z" />
<glyph unicode="g" horiz-adv-x="1118" d="M0 512q0 106 40 199.5t109.5 163t163 109.5t199.5 40q102 0 195 -39t165 -111t110 -165t38 -197v-434q0 -104 -40 -196.5t-107.5 -161t-159.5 -108.5t-197 -40q-94 0 -182 35t-160 100q-8 8 -15 20.5t-7 28.5q-2 25 18 49q18 18 45 19q16 0 28.5 -6t20.5 -13 q51 -49 115.5 -74.5t136.5 -25.5t133.5 27.5t109.5 71.5t79.5 100.5t44.5 115.5v7q0 27 -18.5 45t-47.5 18q-20 0 -31 -8l-2 -2h-2q-121 -78 -270 -78q-106 0 -199.5 40t-163 108.5t-109.5 162t-40 199.5zM133 512q0 -78 30 -147.5t81 -120.5t120.5 -81t147.5 -30t146.5 30 t118.5 81t80 120.5t30 147.5t-29 147.5t-79 122t-118.5 82t-146.5 29.5t-147.5 -29.5t-121.5 -82t-82 -122t-30 -147.5z" />
<glyph unicode="h" horiz-adv-x="1036" d="M6 63v3v495v787q2 27 20.5 44t45.5 17t45 -18.5t18 -44.5v-326q0 -29 19.5 -48.5t48.5 -19.5q16 0 30 9q53 31 112.5 48t125.5 17q96 0 181 -37t147.5 -99.5t99.5 -147.5t37 -181v-498q0 -29 -19.5 -47t-48.5 -18t-48 19.5t-19 45.5v498q0 68 -25.5 128.5t-71 105.5 t-105.5 70.5t-128 25.5t-128 -25.5t-105 -70.5t-71 -105.5t-26 -128.5v-498q0 -29 -19.5 -47t-47.5 -18q-29 0 -48.5 19.5t-19.5 45.5z" />
<glyph unicode="i" horiz-adv-x="235" d="M0 66v895q0 29 19.5 47t48.5 18q27 0 46 -18.5t19 -46.5v-895q0 -27 -19.5 -46.5t-45.5 -19.5q-29 0 -48.5 19.5t-19.5 46.5zM0 1245q0 27 19.5 46.5t48.5 19.5q27 0 46 -19.5t19 -46.5q0 -29 -19 -48t-46 -19q-29 0 -48.5 19.5t-19.5 47.5z" />
<glyph unicode="j" horiz-adv-x="364" d="M-319 -362q0 29 19 48t48 19q76 0 144.5 29.5t119.5 80t81 119t30 146.5v878q0 29 19 48.5t48 19.5q27 0 46.5 -19.5t19.5 -48.5v-878q0 -102 -39 -194.5t-111 -164.5t-164 -110.5t-194 -38.5q-29 0 -48 19.5t-19 46.5zM123 1245q0 27 19.5 46.5t47.5 19.5 q27 0 46.5 -19.5t19.5 -46.5q0 -29 -19.5 -48t-46.5 -19q-29 0 -48 19.5t-19 47.5z" />
<glyph unicode="k" horiz-adv-x="1019" d="M2 68v1275q0 29 18.5 47.5t47.5 18.5t48 -18.5t19 -47.5v-694v-61v-137q195 154 350 276q66 51 129.5 102.5t113.5 91.5t81 64.5t33 26.5q20 14 41 14q35 0 53 -25q16 -23 14 -49t-24 -43v-2q0 -2 -2 -2q-2 -2 -3 -2t-3 -2q-37 -29 -100.5 -78t-123.5 -96 q-70 -55 -147 -119q27 -16 51 -47h2q27 -31 58.5 -65.5t65.5 -71.5t67.5 -75t64.5 -73l148 -165q16 -16 16 -48q-4 -29 -23 -45q-18 -18 -43 -18q-29 0 -49 20l-2 3l-2 2l-6 6q-137 154 -241.5 270.5t-166.5 183.5q-18 18 -47 19q-25 0 -39 -12q-70 -55 -136 -108.5 t-103 -84.5q-27 -20 -27 -53v-2v-176q0 -29 -19.5 -47.5t-47.5 -18.5q-29 0 -47.5 18.5t-18.5 47.5z" />
<glyph unicode="l" horiz-adv-x="239" d="M0 66v1277q0 27 19.5 46.5t46.5 19.5q29 0 49 -19.5t20 -46.5v-1277q0 -27 -20.5 -46.5t-48.5 -19.5q-27 0 -46.5 18.5t-19.5 47.5z" />
<glyph unicode="m" horiz-adv-x="1636" d="M0 66v542q0 86 33 163t89 133.5t133 89t163 32.5q111 0 202 -52t148 -138q55 86 147 138t203 52q86 0 162 -32.5t132 -89t89 -133.5t33 -163v-542q0 -27 -19.5 -46.5t-48.5 -19.5q-27 0 -46 18.5t-19 47.5v538v14q-2 57 -24.5 107.5t-60.5 87.5t-89 58.5t-109 21.5 q-57 0 -108.5 -21.5t-90 -58.5t-61 -87t-24.5 -108v-552q0 -27 -19.5 -46.5t-48.5 -19.5t-47.5 18.5t-18.5 47.5v552q-2 57 -24.5 107.5t-60 87.5t-89 58.5t-108.5 21.5t-108.5 -21.5t-90.5 -58.5t-61.5 -87t-24.5 -108v-10v-305v-237q0 -27 -19.5 -46.5t-47.5 -19.5 q-29 0 -47.5 18.5t-18.5 47.5z" />
<glyph unicode="n" horiz-adv-x="1028" d="M2 66v2v495v400q0 29 18.5 47t47.5 18t48 -18.5t19 -46.5v-74q63 66 148.5 102.5t183.5 36.5q96 0 181 -37t147.5 -99.5t99.5 -147.5t37 -181v-497q0 -29 -19.5 -47.5t-48.5 -18.5t-48 19.5t-19 46.5v497q0 68 -26 128.5t-71 104.5t-105 70.5t-128 26.5t-128 -26.5 t-105.5 -70.5t-71 -104.5t-25.5 -128.5v-497q0 -29 -19.5 -47.5t-47.5 -18.5q-29 0 -48.5 19.5t-19.5 46.5z" />
<glyph unicode="o" horiz-adv-x="1110" d="M-2 512q0 106 40 199.5t109.5 163t163 109.5t199.5 40t199.5 -40t163 -109.5t109.5 -163t40 -199.5q0 -104 -39 -197.5t-111 -164.5q-72 -72 -165 -111t-197 -39q-106 0 -199.5 40t-163 109.5t-109.5 163t-40 199.5zM129 512q0 -78 29.5 -147.5t82 -122t121 -82 t148.5 -29.5q78 0 147.5 29.5t121.5 82t82 122t30 147.5q0 80 -30 148.5t-82 121t-121.5 82t-147.5 29.5q-80 0 -148.5 -29.5t-121 -82t-82 -121t-29.5 -148.5z" />
<glyph unicode="p" horiz-adv-x="1126" d="M6 -365v879q0 106 41 199.5t110.5 163t163 109.5t199.5 40t199.5 -40t163 -109.5t109.5 -162.5t40 -200q0 -106 -40 -199.5t-109.5 -163t-162.5 -110.5t-200 -41q-90 0 -164 27q-59 20 -112 55h-2q-16 10 -35 10q-29 0 -48.5 -18.5t-19.5 -44.5v-391q0 -29 -19.5 -47.5 t-45.5 -18.5q-29 0 -47.5 17.5t-20.5 45.5zM141 514q0 -78 30 -147.5t81 -120.5t120.5 -81t147.5 -30t147.5 30t121 81t81 120.5t29.5 147.5t-29.5 147.5t-81 121t-121 81t-147.5 29.5t-147.5 -29.5t-120.5 -81t-81 -121t-30 -147.5z" />
<glyph unicode="q" horiz-adv-x="1122" d="M2 514q0 106 40 199.5t109.5 163t163 109.5t199.5 40t199.5 -40t163 -109.5t110.5 -162.5t41 -200v-879q-2 -29 -20.5 -46t-46.5 -17q-27 0 -46.5 18.5t-19.5 47.5v391q0 27 -19.5 45t-48.5 18q-18 0 -32 -10h-2h-2q-53 -35 -113 -55q-74 -27 -164 -27q-106 0 -199.5 41 t-163 110.5t-109.5 163t-40 199.5zM135 514q0 -78 30 -147.5t81 -120.5t120.5 -81t147.5 -30t147.5 30t121 81t81 120.5t29.5 147.5t-29.5 147.5t-81 121t-121 81t-147.5 29.5t-147.5 -29.5t-120.5 -81t-81 -121t-30 -147.5z" />
<glyph unicode="r" horiz-adv-x="948" d="M4 66v448q0 104 39 197.5t113 165.5q72 72 165 110.5t197 38.5q133 0 254 -68q43 -25 67.5 -46t32.5 -29q20 -20 21 -49q0 -27 -18.5 -46.5t-47.5 -19.5q-16 0 -26 6t-21 12l-2 2l-2 5q-14 14 -35.5 31.5t-53.5 32.5t-74 25.5t-95 10.5q-80 0 -148.5 -29.5t-120.5 -82 t-82 -121t-30 -148.5v-446q0 -27 -19.5 -46.5t-47.5 -19.5q-29 0 -47.5 18.5t-18.5 47.5z" />
<glyph unicode="s" horiz-adv-x="899" d="M0 227q2 27 20.5 45.5t47.5 18.5h4h2q14 -4 22 -9.5t17 -11.5l2 -2l2 -2q14 -14 48 -35.5t77 -43t91 -37t93 -15.5q57 0 106.5 19.5t69.5 35.5q29 25 45.5 54.5t16.5 54.5q-2 29 -15.5 49.5t-48.5 48.5q-10 8 -33.5 18.5t-53.5 20.5t-64.5 19.5t-67.5 19.5 q-72 20 -128 37.5t-81 34.5q-115 76 -115 196q0 59 30 113.5t83 95.5l2 2q109 70 250 70q61 0 113.5 -14.5t95.5 -35t75.5 -45t55.5 -42.5l2 -2q8 -10 15 -23.5t7 -30.5v-2q-2 -25 -19 -42t-42 -19h-2q-33 0 -55 20h-2l-20 16q-19 17 -52 36.5t-77 36t-95 16.5 q-98 0 -172 -55q-23 -20 -37 -45t-14 -50q0 -23 10 -40t37 -37q14 -10 63 -24.5t103 -29.5q78 -23 155.5 -46t116.5 -50q57 -37 89 -94t32 -123q0 -123 -123 -215q-111 -84 -256 -84q-51 0 -101.5 11.5t-94.5 26.5t-77.5 33.5t-52.5 30.5q-35 27 -56 48.5t-26 25.5 q-18 20 -18 51z" />
<glyph unicode="t" horiz-adv-x="829" d="M-49 831q0 27 19.5 46.5t45.5 19.5h93v444q0 29 19 47.5t46 18.5q29 0 48.5 -18.5t19.5 -47.5v-444h301q27 0 46 -19.5t19 -48.5q0 -27 -19.5 -46t-45.5 -19h-301v-322q2 -66 28.5 -122t69.5 -97t99.5 -65.5t121.5 -24.5q92 0 168 47q14 8 35 8q29 0 47 -18t18 -47 q0 -37 -30 -57q-102 -66 -238 -66q-94 0 -176 36t-143.5 97.5t-97 143t-35.5 176.5v311h-93q-27 0 -46 19.5t-19 47.5z" />
<glyph unicode="u" horiz-adv-x="1032" d="M2 465v496q0 29 18.5 47t47.5 18t49 -18.5t20 -46.5v-496q0 -68 25.5 -128.5t71 -105.5t105.5 -70.5t128 -25.5t128 25.5t105 70.5t71 105.5t26 128.5v496q0 29 18 47t47 18t49.5 -18.5t20.5 -46.5v-496q0 -96 -37 -181t-99.5 -148.5t-147.5 -99.5t-181 -36t-181 36 t-148.5 99.5t-99.5 148.5t-36 181z" />
<glyph unicode="v" horiz-adv-x="978" d="M-39 980q8 26 33 38v2q14 6 31 6q39 0 59 -37l344 -670q14 -30 51 -30h2q37 0 58 33q55 106 115.5 223t110.5 215t84 162.5t34 66.5q20 35 61 35q13 0 29 -6q25 -14 33 -41q3 -10 3 -20q0 -16 -8 -31l-458 -891q-18 -35 -60 -35q-39 0 -59 35l-457 893q-9 16 -9 32 q0 10 3 20z" />
<glyph unicode="w" horiz-adv-x="1640" d="M2 416v545q0 27 19.5 46t48.5 19t47 -18.5t18 -46.5v-539v-14q2 -57 25.5 -107.5t61.5 -87.5t89 -58.5t109 -21.5q57 0 108.5 21.5t89 58.5t60 87t24.5 108v553q0 27 19.5 46t48.5 19t47.5 -18.5t18.5 -46.5v-275v-101t1 -89t1 -64v-24q2 -57 24.5 -107.5t60.5 -87.5 t89 -58.5t108 -21.5t108.5 21.5t89.5 58.5t60.5 87t24.5 108v8v307v238q0 27 19.5 46t47.5 19q29 0 48.5 -18.5t19.5 -46.5v-545q0 -86 -32.5 -162t-90 -132t-133.5 -89t-162 -33q-111 0 -203 52t-147 138q-55 -86 -147 -138t-203 -52q-86 0 -163 33t-133 89t-89 132 t-33 162z" />
<glyph unicode="x" horiz-adv-x="1011" d="M-24 65q0 26 18 46l407 450l-319 352q-18 20 -17 48t23 47q19 17 44 17h3q27 -1 45 -21l312 -345l311 345q19 20 45 21h2q25 0 45 -17q23 -18 24 -46t-18 -49l-319 -352l407 -450q18 -19 18 -46q-1 -1 -1 -2q0 -28 -23 -47q-19 -17 -45 -17h-3q-28 1 -46 21l-397 441 l-398 -441q-18 -20 -46 -21h-3q-26 0 -45 17q-24 19 -24 49z" />
<glyph unicode="y" horiz-adv-x="1036" d="M2 463v495q0 29 19.5 48.5t48.5 19.5t48 -19.5t19 -48.5v-495q0 -68 25.5 -128.5t71 -105.5t105.5 -70.5t128 -25.5t128 25.5t105 70.5t71 105.5t26 128.5v495q0 23 13 40.5t32 23.5q16 4 22 4q25 0 43.5 -15.5t24.5 -37.5v-15v-495v-387q0 -104 -40 -196.5t-108.5 -160 t-161 -107.5t-196.5 -40q-98 0 -185 33t-159 98q-25 20 -25 53q0 29 19.5 48.5t48.5 19.5q27 0 47 -21q49 -47 111.5 -72.5t130.5 -27.5h12q66 0 125 20.5t106.5 58.5t81 90t49.5 114v12q0 29 -18 47t-47 18q-16 0 -29 -6q-51 -29 -107.5 -44t-119.5 -15q-96 0 -181 37 t-147.5 99.5t-99.5 147.5t-37 181z" />
<glyph unicode="z" horiz-adv-x="1134" d="M3 76q5 20 22 37l675 675q16 16 17 41q0 27 -17.5 44.5t-44.5 19.5h-583q-29 0 -48.5 19.5t-19.5 45.5q0 29 19.5 48.5t48.5 19.5h893q49 0 65 -39q4 -12 4 -24q0 -27 -22 -52l-31 -31q-31 -30 -83 -82.5t-119.5 -120t-142.5 -141t-151.5 -150.5t-144.5 -144 q-18 -18 -18 -47q0 -25 17 -43.5t42 -18.5h584q29 0 48 -19.5t19 -47.5q0 -29 -19.5 -47.5t-47.5 -18.5h-893q-49 0 -66 39q-5 11 -5 23q0 6 2 14z" />
<glyph unicode="&#xa3;" horiz-adv-x="1175" d="M59 621q0 29 19.5 47t46.5 18h117q18 0 18 16v201q0 102 39 194.5t111 164.5t163 109.5t195 37.5q102 0 201 -41q2 0 3 -1t3 -1q16 -10 26.5 -24.5t10.5 -34.5q0 -29 -19.5 -47.5t-46.5 -18.5q-16 0 -28 6q-72 31 -150 31t-146.5 -29.5t-118.5 -81t-80 -120t-30 -144.5 v-201q0 -16 17 -16h282q27 0 46.5 -18.5t19.5 -46.5q0 -29 -19.5 -47.5t-46.5 -18.5h-282q-16 0 -17 -18v-177q-4 -125 -59 -227h674q29 0 48 -19.5t19 -45.5q0 -29 -19.5 -48.5t-47.5 -19.5h-803q-29 0 -48.5 19.5t-19.5 48.5q0 31 27 51q47 49 70.5 112.5t25.5 133.5 l-2 172q0 18 -16 18h-117q-27 0 -46.5 18.5t-19.5 47.5z" />
<glyph unicode="&#xad;" d="M0 551q0 27 18.5 45t47.5 18h831q27 0 46.5 -18t19.5 -45q0 -29 -18.5 -48.5t-47.5 -19.5h-831q-29 0 -47.5 19.5t-18.5 48.5z" />
<glyph unicode="&#x2000;" horiz-adv-x="743" />
<glyph unicode="&#x2001;" horiz-adv-x="1487" />
<glyph unicode="&#x2002;" horiz-adv-x="743" />
<glyph unicode="&#x2003;" horiz-adv-x="1487" />
<glyph unicode="&#x2004;" horiz-adv-x="495" />
<glyph unicode="&#x2005;" horiz-adv-x="371" />
<glyph unicode="&#x2006;" horiz-adv-x="247" />
<glyph unicode="&#x2007;" horiz-adv-x="247" />
<glyph unicode="&#x2008;" horiz-adv-x="185" />
<glyph unicode="&#x2009;" horiz-adv-x="297" />
<glyph unicode="&#x200a;" horiz-adv-x="82" />
<glyph unicode="&#x2010;" d="M0 551q0 27 18.5 45t47.5 18h831q27 0 46.5 -18t19.5 -45q0 -29 -18.5 -48.5t-47.5 -19.5h-831q-29 0 -47.5 19.5t-18.5 48.5z" />
<glyph unicode="&#x2011;" d="M0 551q0 27 18.5 45t47.5 18h831q27 0 46.5 -18t19.5 -45q0 -29 -18.5 -48.5t-47.5 -19.5h-831q-29 0 -47.5 19.5t-18.5 48.5z" />
<glyph unicode="&#x2012;" d="M0 551q0 27 18.5 45t47.5 18h831q27 0 46.5 -18t19.5 -45q0 -29 -18.5 -48.5t-47.5 -19.5h-831q-29 0 -47.5 19.5t-18.5 48.5z" />
<glyph unicode="&#x2013;" horiz-adv-x="1142" d="M0 551q0 27 19.5 45t50.5 18h884q29 0 49.5 -18t20.5 -45q0 -29 -19.5 -48.5t-50.5 -19.5h-884q-31 0 -50.5 19.5t-19.5 48.5z" />
<glyph unicode="&#x2014;" horiz-adv-x="2166" d="M0 551q0 27 39.5 45t100.5 18h1768q57 0 98.5 -18t41.5 -45q0 -29 -39.5 -48.5t-100.5 -19.5h-1768q-61 0 -100.5 19.5t-39.5 48.5z" />
<glyph unicode="&#x2018;" horiz-adv-x="239" d="M12 1268v2v73v5v2q2 27 20.5 43t45.5 16q29 0 47 -18.5t18 -47.5t-18.5 -47t-46.5 -18h-12v-8q0 -16 14 -17q6 0 10 2q6 6 16 7q27 0 27 -27q0 -10 -10 -21q-2 0 -2 -2q-18 -12 -41 -12q-29 0 -48.5 19.5t-19.5 48.5z" />
<glyph unicode="&#x2019;" horiz-adv-x="206" d="M2 1343q0 29 18.5 47.5t47.5 18.5q27 0 45 -16.5t20 -42.5v-2v-5v-73v-2q0 -29 -19.5 -48.5t-47.5 -19.5q-23 0 -41 12q0 2 -2 2q-10 10 -11 21q0 27 27 27q10 0 16 -7q4 -2 11 -2q14 0 14 17v8h-12q-29 0 -47.5 18.5t-18.5 46.5z" />
<glyph unicode="&#x201c;" horiz-adv-x="356" d="M14 1268v2v73v5v2q2 27 20.5 43t45.5 16q29 0 47 -18.5t18 -47.5t-18 -47t-47 -18h-12v-8q0 -16 14 -17q6 0 10 2q6 6 17 7q27 0 26 -27q0 -10 -10 -21q-2 0 -2 -2q-18 -12 -41 -12q-29 0 -48.5 19.5t-19.5 48.5zM213 1268v2v73v5v2q2 27 20.5 43t42.5 16 q29 0 48.5 -18.5t19.5 -47.5t-19.5 -47t-48.5 -18h-10v-8q0 -16 15 -17q6 0 8 2q8 6 16 7q27 0 27 -27q0 -12 -8 -21h-2v-2q-18 -12 -41 -12q-29 0 -48.5 19.5t-19.5 48.5z" />
<glyph unicode="&#x201d;" horiz-adv-x="409" d="M-2 1343q0 29 19.5 47.5t48.5 18.5q25 0 43 -16.5t20 -42.5v-2q2 0 2 -5l-2 -73v-2q0 -29 -19.5 -48.5t-48.5 -19.5q-25 0 -38 12l-3 2h-2q-8 8 -8 21q0 27 27 27q6 0 16 -7q2 -2 8 -2q16 0 17 17v8h-12q-29 0 -48.5 18.5t-19.5 46.5zM197 1343q0 29 18 47.5t47 18.5 q27 0 45.5 -16.5t20.5 -42.5v-2v-5v-73v-2q0 -29 -19.5 -48.5t-48.5 -19.5q-23 0 -41 12q0 2 -2 2q-10 10 -10 21q0 27 26 27q10 0 17 -7q4 -2 10 -2q14 0 14 17v8h-12q-29 0 -47 18.5t-18 46.5z" />
<glyph unicode="&#x202f;" horiz-adv-x="297" />
<glyph unicode="&#x205f;" horiz-adv-x="371" />
<glyph unicode="&#x20ac;" horiz-adv-x="1226" d="M2 541q0 29 18.5 47t47.5 20h129q-2 23 -3 46.5t-1 45.5v5h-125q-29 0 -47.5 18t-18.5 47q0 27 18.5 45.5t47.5 20.5h135q18 121 68.5 225t124 180t165.5 119t195 43q100 0 190 -41t162 -115q23 -18 22 -47q0 -29 -19 -48t-48 -19q-31 0 -47 20q-55 53 -121 84t-139 31 q-76 0 -144.5 -33t-124 -90.5t-94.5 -137t-57 -171.5h274q27 0 46.5 -18.5t19.5 -47.5t-19.5 -47t-46.5 -18h-286v-5q0 -47 6 -92h280q27 0 46.5 -19.5t19.5 -47.5q0 -27 -19.5 -45.5t-46.5 -18.5h-250q25 -76 65 -139.5t91 -108.5t111.5 -70.5t128.5 -25.5q72 0 138.5 31 t119.5 84q20 20 49 20t48 -19.5t19 -47.5q0 -31 -22 -49q-72 -72 -162 -112t-190 -40q-92 0 -177 36t-155 98.5t-122 150.5t-81 192h-153q-29 0 -47.5 18.5t-18.5 45.5z" />
<glyph unicode="&#xe000;" horiz-adv-x="1024" d="M0 0v1024h1024v-1024h-1024z" />
</font>
</defs>
</svg>
